{
	"asset":{
		"generator":"Khronos glTF Blender I/O v4.4.56",
		"version":"2.0"
	},
	"scene":0,
	"scenes":[
		{
			"name":"Scene",
			"nodes":[
				1
			]
		}
	],
	"nodes":[
		{
			"mesh":0,
			"name":"Icing"
		},
		{
			"children":[
				0
			],
			"mesh":1,
			"name":"Donut",
			"translation":[
				0,
				0.019934583455324173,
				0
			]
		}
	],
	"materials":[
		{
			"doubleSided":true,
			"name":"Material.002",
			"pbrMetallicRoughness":{
				"baseColorFactor":[
					0.8000000715255737,
					0.37207522988319397,
					0.6590214371681213,
					1
				],
				"metallicFactor":0,
				"roughnessFactor":0.3400000035762787
			}
		},
		{
			"doubleSided":true,
			"name":"Material.003",
			"pbrMetallicRoughness":{
				"baseColorFactor":[
					0.8000000715255737,
					0.6188189387321472,
					0.20475956797599792,
					1
				],
				"metallicFactor":0,
				"roughnessFactor":0.5
			}
		}
	],
	"meshes":[
		{
			"name":"Torus.001",
			"primitives":[
				{
					"attributes":{
						"POSITION":0,
						"NORMAL":1,
						"TEXCOORD_0":2
					},
					"indices":3,
					"material":0
				}
			]
		},
		{
			"name":"Torus",
			"primitives":[
				{
					"attributes":{
						"POSITION":4,
						"NORMAL":5,
						"TEXCOORD_0":6
					},
					"indices":7,
					"material":1
				}
			]
		}
	],
	"accessors":[
		{
			"bufferView":0,
			"componentType":5126,
			"count":66178,
			"max":[
				0.07182586193084717,
				0.031075432896614075,
				0.07399968802928925
			],
			"min":[
				-0.07267984002828598,
				-0.008432578295469284,
				-0.07196954637765884
			],
			"type":"VEC3"
		},
		{
			"bufferView":1,
			"componentType":5126,
			"count":66178,
			"type":"VEC3"
		},
		{
			"bufferView":2,
			"componentType":5126,
			"count":66178,
			"type":"VEC2"
		},
		{
			"bufferView":3,
			"componentType":5125,
			"count":391680,
			"type":"SCALAR"
		},
		{
			"bufferView":4,
			"componentType":5126,
			"count":1513,
			"max":[
				0.06937941163778305,
				0.026967711746692657,
				0.06911585479974747
			],
			"min":[
				-0.0696287751197815,
				-0.02483888901770115,
				-0.06965978443622589
			],
			"type":"VEC3"
		},
		{
			"bufferView":5,
			"componentType":5126,
			"count":1513,
			"type":"VEC3"
		},
		{
			"bufferView":6,
			"componentType":5126,
			"count":1513,
			"type":"VEC2"
		},
		{
			"bufferView":7,
			"componentType":5123,
			"count":8064,
			"type":"SCALAR"
		}
	],
	"bufferViews":[
		{
			"buffer":0,
			"byteLength":794136,
			"byteOffset":0,
			"target":34962
		},
		{
			"buffer":0,
			"byteLength":794136,
			"byteOffset":794136,
			"target":34962
		},
		{
			"buffer":0,
			"byteLength":529424,
			"byteOffset":1588272,
			"target":34962
		},
		{
			"buffer":0,
			"byteLength":1566720,
			"byteOffset":2117696,
			"target":34963
		},
		{
			"buffer":0,
			"byteLength":18156,
			"byteOffset":3684416,
			"target":34962
		},
		{
			"buffer":0,
			"byteLength":18156,
			"byteOffset":3702572,
			"target":34962
		},
		{
			"buffer":0,
			"byteLength":12104,
			"byteOffset":3720728,
			"target":34962
		},
		{
			"buffer":0,
			"byteLength":16128,
			"byteOffset":3732832,
			"target":34963
		}
	],
	"buffers":[
		{
			"byteLength":3748960,
			"uri":"donut.bin"
		}
	]
}
